<svg xmlns="http://www.w3.org/2000/svg" viewBox="0 0 1200 630">
  <rect width="1200" height="630" fill="#090909"/>
  <path d="M0 96h1200M0 192h1200M0 288h1200M0 384h1200M0 480h1200M0 576h1200" stroke="#ffffff" stroke-opacity=".035"/>
  <path d="M96 0v630M192 0v630M288 0v630M384 0v630M480 0v630M576 0v630M672 0v630M768 0v630M864 0v630M960 0v630M1056 0v630M1152 0v630" stroke="#ffffff" stroke-opacity=".025"/>
  <circle cx="112" cy="104" r="48" fill="#f7f7f4"/>
  <g transform="translate(76 75) scale(.1125)">
    <path
      fill="#090909"
      d="M392.8 1.2c-17-4.9-34.7 5-39.6 22l-128 448c-4.9 17 5 34.7 22 39.6s34.7-5 39.6-22l128-448c4.9-17-5-34.7-22-39.6zm80.6 120.1c-12.5 12.5-12.5 32.8 0 45.3L562.7 256l-89.4 89.4c-12.5 12.5-12.5 32.8 0 45.3s32.8 12.5 45.3 0l112-112c12.5-12.5 12.5-32.8 0-45.3l-112-112c-12.5-12.5-32.8-12.5-45.3 0zm-306.7 0c-12.5-12.5-32.8-12.5-45.3 0l-112 112c-12.5 12.5-12.5 32.8 0 45.3l112 112c12.5 12.5 32.8 12.5 45.3 0s12.5-32.8 0-45.3L77.3 256l89.4-89.4c12.5-12.5 12.5-32.8 0-45.3z"
    />
  </g>
  <text x="184" y="122" fill="#f7f7f4" font-family="Inter,Arial,sans-serif" font-size="42" font-weight="700">WorkLog</text>
  <text x="80" y="300" fill="#f7f7f4" font-family="Inter,Arial,sans-serif" font-size="68" font-weight="650">Controle real do</text>
  <text x="80" y="382" fill="#f7f7f4" font-family="Inter,Arial,sans-serif" font-size="68" font-weight="650">tempo trabalhado.</text>
  <text x="84" y="468" fill="#f7f7f4" fill-opacity=".62" font-family="Inter,Arial,sans-serif" font-size="30">Horas, projetos e pagamentos em um só lugar.</text>
  <rect x="80" y="536" width="1040" height="1" fill="#ffffff" fill-opacity=".14"/>
  <circle cx="94" cy="575" r="6" fill="#4ade80"/>
  <text x="114" y="583" fill="#f7f7f4" fill-opacity=".5" font-family="Inter,Arial,sans-serif" font-size="20">WakaTime + Supabase + Prisma</text>
</svg>
